<?xml version="1.0" standalone="no"?>
<!DOCTYPE svg PUBLIC "-//W3C//DTD SVG 20010904//EN"
 "http://www.w3.org/TR/2001/REC-SVG-20010904/DTD/svg10.dtd">
<svg version="1.0" xmlns="http://www.w3.org/2000/svg"
 width="300.000000pt" height="300.000000pt" viewBox="0 0 300.000000 300.000000"
 preserveAspectRatio="xMidYMid meet">
<metadata>
Created by potrace 1.14, written by Peter Selinger 2001-2017
</metadata>
<g transform="translate(0.000000,300.000000) scale(0.100000,-0.100000)"
fill="#000000" stroke="none">
<path d="M1545 2680 c-21 -33 -316 -213 -475 -289 -193 -92 -315 -124 -472
-125 l-78 -1 -1 -35 c0 -19 -2 -71 -2 -115 l-2 -79 93 1 c52 1 92 0 90 -2 -1
-2 -41 -13 -87 -24 -259 -65 -495 -223 -576 -386 -42 -85 -45 -198 -9 -305 35
-103 45 -109 41 -25 -7 148 33 260 128 358 140 144 351 226 670 262 54 6 64
12 103 51 88 91 179 129 302 129 101 -1 164 -25 248 -93 l52 -43 33 31 c17 17
66 47 106 68 69 34 82 37 160 37 275 -1 438 -222 384 -519 -45 -249 -216 -458
-480 -590 -69 -34 -184 -76 -211 -76 -8 0 -56 16 -106 36 -258 103 -450 283
-536 505 -34 88 -45 148 -44 240 l0 66 -90 -19 c-140 -30 -315 -92 -396 -140
-165 -98 -208 -189 -149 -315 49 -102 205 -210 439 -304 51 -20 94 -45 108
-61 58 -69 211 -212 308 -288 124 -98 365 -262 436 -296 36 -17 36 -17 95 16
67 38 177 111 278 184 66 47 265 206 265 210 0 2 -6 3 -12 3 -7 0 -58 3 -113
7 -102 8 -136 15 -74 17 19 0 41 2 49 4 8 1 32 6 53 9 451 73 786 244 889 453
36 74 48 173 29 250 -13 53 -52 156 -57 150 -2 -1 4 -30 13 -62 9 -33 16 -98
16 -145 1 -75 -3 -92 -27 -136 -68 -126 -209 -226 -414 -294 -91 -30 -289 -74
-382 -85 -30 -3 -64 -9 -75 -12 -13 -3 -3 13 31 48 28 30 68 76 88 104 29 38
44 50 69 53 75 8 232 44 314 73 274 96 349 234 219 404 -33 43 -103 110 -144
137 l-26 17 -3 248 c-2 136 -3 255 -4 263 0 12 -19 15 -97 16 -149 2 -298 47
-504 150 -112 56 -266 149 -361 216 -80 57 -93 63 -102 48z m1134 -1055 c118
-110 138 -217 53 -292 -27 -25 -144 -85 -191 -98 -27 -8 -27 -13 8 116 20 74
48 231 53 297 1 17 6 32 10 32 4 0 34 -25 67 -55z m-2141 -62 c8 -118 76 -353
134 -466 22 -43 39 -80 37 -82 -3 -2 -46 16 -96 40 -227 108 -342 224 -330
334 4 40 12 52 60 96 44 40 163 113 187 115 3 0 7 -17 8 -37z"/>
<path d="M1292 1869 c-65 -19 -142 -127 -142 -201 0 -10 -4 -18 -10 -18 -5 0
-10 11 -10 24 0 26 -24 37 -68 30 -44 -7 -52 -12 -52 -33 0 -25 36 -51 72 -51
30 0 34 -10 17 -42 -14 -27 -19 -179 -6 -196 5 -6 11 -37 12 -68 4 -72 18 -85
90 -89 49 -3 61 0 81 20 13 13 21 32 20 46 l-3 24 264 0 263 0 0 -23 c0 -13
11 -34 24 -46 20 -21 31 -24 82 -21 71 4 84 18 84 90 0 28 5 56 11 62 12 12 8
183 -5 221 -8 20 -5 22 23 22 30 0 71 29 71 49 0 20 -42 39 -77 35 -45 -6 -56
-12 -49 -30 3 -7 1 -16 -3 -19 -5 -2 -12 11 -15 30 -17 90 -74 162 -145 183
-47 15 -480 15 -529 1z m515 -50 c56 -21 94 -72 107 -141 l7 -38 -362 0 -361
0 7 37 c13 73 54 126 110 142 44 13 458 13 492 0z m-506 -341 c27 -18 49 -38
49 -44 0 -28 -146 -58 -174 -35 -22 18 -28 61 -15 94 11 27 15 29 52 24 21 -3
61 -20 88 -39z m657 10 c13 -28 2 -75 -21 -90 -30 -19 -154 4 -164 30 -7 17
24 45 82 73 53 25 86 21 103 -13z"/>
</g>
</svg>
